<?xml version="1.0" encoding="utf-8"?>
<!-- Generator: Adobe Illustrator 19.1.0, SVG Export Plug-In . SVG Version: 6.00 Build 0)  -->
<svg version="1.1" id="아이콘" xmlns="http://www.w3.org/2000/svg" xmlns:xlink="http://www.w3.org/1999/xlink" x="0px" y="0px"
	 viewBox="-289 380 33 33" style="enable-background:new -289 380 33 33;" xml:space="preserve">
<style type="text/css">
	.st0{fill:#FFFFFF;}
</style>
<g>
	<path class="st0" d="M-279,388.5h2.8c0.6,0,1-0.4,1-1s-0.4-1-1-1h-5.3c-0.6,0-1,0.4-1,1v5.3c0,0.6,0.4,1,1,1s1-0.4,1-1v-3l4.9,4.9
		c0.2,0.2,0.5,0.3,0.7,0.3s0.5-0.1,0.7-0.3c0.4-0.4,0.4-1,0-1.4L-279,388.5z"/>
	<path class="st0" d="M-275.7,398.2l-4.8,4.8v-2.8c0-0.6-0.4-1-1-1s-1,0.4-1,1v5.3c0,0.6,0.4,1,1,1h5.3c0.6,0,1-0.4,1-1s-0.4-1-1-1
		h-3l4.9-4.9c0.4-0.4,0.4-1,0-1.4S-275.3,397.8-275.7,398.2z"/>
	<path class="st0" d="M-263.5,399.2c-0.6,0-1,0.4-1,1v3l-4.9-4.9c-0.4-0.4-1-0.4-1.4,0s-0.4,1,0,1.4l4.8,4.8h-2.8c-0.6,0-1,0.4-1,1
		s0.4,1,1,1h5.3c0.6,0,1-0.4,1-1v-5.3C-262.5,399.6-262.9,399.2-263.5,399.2z"/>
	<path class="st0" d="M-263.5,386.5h-5.3c-0.6,0-1,0.4-1,1s0.4,1,1,1h3l-4.9,4.9c-0.4,0.4-0.4,1,0,1.4c0.2,0.2,0.5,0.3,0.7,0.3
		s0.5-0.1,0.7-0.3l4.8-4.8v2.8c0,0.6,0.4,1,1,1s1-0.4,1-1v-5.3C-262.5,386.9-262.9,386.5-263.5,386.5z"/>
</g>
</svg>
