<?xml version="1.0" encoding="utf-8"?>
<!-- Generator: Adobe Illustrator 19.1.0, SVG Export Plug-In . SVG Version: 6.00 Build 0)  -->
<svg version="1.1" id="아이콘" xmlns="http://www.w3.org/2000/svg" xmlns:xlink="http://www.w3.org/1999/xlink" x="0px" y="0px"
	 viewBox="-289 380 33 33" style="enable-background:new -289 380 33 33;" xml:space="preserve">
<style type="text/css">
	.st0{fill:#FFFFFF;}
</style>
<path class="st0" d="M-269.5,405.9l1.6,0c1.7,0,3-1.4,3-3V396h1.7c0.9,0,0.9-0.8-0.2-1.7l-7.2-6.5c-1.1-0.9-2.8-0.9-3.8,0l-7.2,6.5
	c-1.1,0.9-1.1,1.7-0.2,1.7c0.9,0,1.7,0,1.7,0l0,6.9c0,1.7,1.4,3,3,3l1.7,0L-269.5,405.9z M-269,396.1l0,2.9l-2.9,0l0-2.9L-269,396.1
	z M-276,396.1l2.9,0l0,2.9h-2.9L-276,396.1z M-276,403.1l0-2.9l2.9,0l0,2.9H-276z M-271.9,403.1v-2.9l2.9,0l0,2.9L-271.9,403.1z
	 M-271.9,403.1"/>
</svg>
