<?xml version="1.0" encoding="utf-8"?>
<!-- Generator: Adobe Illustrator 19.1.0, SVG Export Plug-In . SVG Version: 6.00 Build 0)  -->
<svg version="1.1" id="아이콘" xmlns="http://www.w3.org/2000/svg" xmlns:xlink="http://www.w3.org/1999/xlink" x="0px" y="0px"
	 viewBox="-289 380 33 33" style="enable-background:new -289 380 33 33;" xml:space="preserve">
<style type="text/css">
	.st0{fill:#FFFFFF;}
</style>
<g>
	<path class="st0" d="M-263,390h-20c-0.6,0-1-0.4-1-1s0.4-1,1-1h20c0.6,0,1,0.4,1,1S-262.4,390-263,390z"/>
	<path class="st0" d="M-263,398h-20c-0.6,0-1-0.4-1-1c0-0.6,0.4-1,1-1h20c0.6,0,1,0.4,1,1C-262,397.6-262.4,398-263,398z"/>
	<path class="st0" d="M-263,405h-20c-0.6,0-1-0.4-1-1s0.4-1,1-1h20c0.6,0,1,0.4,1,1S-262.4,405-263,405z"/>
</g>
</svg>
