<?xml version="1.0" encoding="utf-8"?>
<!-- Generator: Adobe Illustrator 19.1.0, SVG Export Plug-In . SVG Version: 6.00 Build 0)  -->
<svg version="1.1" id="아이콘" xmlns="http://www.w3.org/2000/svg" xmlns:xlink="http://www.w3.org/1999/xlink" x="0px" y="0px"
	 viewBox="-296 380 19 33" style="enable-background:new -296 380 19 33;" xml:space="preserve">
<style type="text/css">
	.st0{opacity:0.8;}
	.st1{opacity:0.5;fill:#FFFFFF;enable-background:new    ;}
</style>
<g class="st0">
	<path class="st1" d="M-278.4,412.5c-0.3,0-0.5-0.1-0.7-0.3l-15.3-15.3c-0.4-0.4-0.4-1,0-1.4l14.7-14.7c0.4-0.4,1-0.4,1.4,0
		c0.4,0.4,0.4,1,0,1.4l-14,14l14.6,14.6c0.4,0.4,0.4,1,0,1.4C-277.9,412.4-278.2,412.5-278.4,412.5z"/>
	<path class="st1" d="M-294.6,412.5c-0.6,0-1-0.4-1-1v-30c0-0.6,0.4-1,1-1s1,0.4,1,1v30C-293.6,412-294,412.5-294.6,412.5z"/>
</g>
</svg>
