<?xml version="1.0" encoding="utf-8"?>
<!-- Generator: Adobe Illustrator 19.1.0, SVG Export Plug-In . SVG Version: 6.00 Build 0)  -->
<svg version="1.1" id="아이콘" xmlns="http://www.w3.org/2000/svg" xmlns:xlink="http://www.w3.org/1999/xlink" x="0px" y="0px"
	 viewBox="0 0 342.058 72.5" enable-background="new 0 0 342.058 72.5" xml:space="preserve">
<g enable-background="new    ">
	<path fill="#ECEAF8" d="M114.577,37.77h-8.193v1.607h4.031v7.025h-2.357v-4.801h-8.435v-2.225h4.361V37.77h-8.259v-2.225h18.853
		V37.77z M110.15,34.312H99.689v-8.259h2.334v2.114h5.792v-2.114h2.334V34.312z M107.816,32.132v-1.784h-5.792v1.784H107.816z"/>
	<path fill="#ECEAF8" d="M125.17,39.29h-8.854V28.145h8.854V39.29z M122.836,37.043v-6.65h-4.185v6.65H122.836z M134.795,34.511
		h-3.59v10.901h-2.378V25.371h2.378v6.938h3.59V34.511z"/>
	<path fill="#ECEAF8" d="M154.198,42.725h-18.831v-2.246h18.831V42.725z M150.189,32.044c0,0.543-0.015,1.12-0.044,1.729
		c-0.03,0.609-0.088,1.23-0.176,1.861c-0.088,0.632-0.209,1.256-0.363,1.872s-0.349,1.197-0.583,1.74h-2.489
		c0.279-0.734,0.51-1.479,0.694-2.235c0.183-0.757,0.319-1.494,0.407-2.214h-8.875v-2.246c0.514,0,0.983,0,1.409,0s0.91,0,1.454,0
		c0.543,0,1.101,0,1.674,0s1.13,0,1.674,0c0.543,0,1.028,0,1.454,0c0.411,0,0.881,0,1.41,0c0-0.133,0.003-0.261,0.011-0.386
		s0.011-0.253,0.011-0.386v-1.96h-9.096v-2.202h11.43V32.044z"/>
</g>
<g>
	<path fill="#ECEAF8" d="M49.101,52.927H37.214c-2.114,0-3.834-1.72-3.834-3.834V28.582c0-2.114,1.72-3.834,3.834-3.834h11.887
		c2.115,0,3.835,1.72,3.835,3.834v20.511C52.936,51.207,51.216,52.927,49.101,52.927z M37.214,26.747
		c-1.011,0-1.834,0.823-1.834,1.834v20.511c0,1.012,0.823,1.834,1.834,1.834h11.887c1.012,0,1.835-0.823,1.835-1.834V28.582
		c0-1.012-0.823-1.834-1.835-1.834H37.214z"/>
	<path fill="#ECEAF8" d="M53.269,36.185c-0.093,0-0.188-0.013-0.281-0.041c-0.53-0.155-0.834-0.711-0.679-1.241l2.395-8.186
		c0.284-0.971-0.275-1.993-1.246-2.277l-9.408-2.757c-0.512-0.15-1.047-0.147-1.469,0.008c-0.186,0.068-0.512,0.228-0.6,0.529
		l-0.589,2.012c-0.155,0.53-0.711,0.833-1.241,0.679c-0.53-0.155-0.834-0.711-0.679-1.241l0.589-2.013
		c0.244-0.835,0.912-1.507,1.83-1.845c0.827-0.303,1.792-0.319,2.72-0.049l9.408,2.758c2.029,0.594,3.196,2.729,2.603,4.758
		l-2.395,8.186C54.1,35.902,53.702,36.185,53.269,36.185z"/>
	<path fill="#ECEAF8" d="M43.157,40.457c-3.329,0-6.037-2.708-6.037-6.038c0-3.329,2.708-6.037,6.037-6.037
		c3.33,0,6.04,2.708,6.04,6.037C49.196,37.749,46.487,40.457,43.157,40.457z M43.157,29.882c-2.502,0-4.537,2.035-4.537,4.537
		c0,2.502,2.035,4.538,4.537,4.538c2.503,0,4.54-2.036,4.54-4.538C47.696,31.917,45.66,29.882,43.157,29.882z"/>
	<rect x="36.952" y="43.374" fill="#ECEAF8" width="12.408" height="1.268"/>
	<rect x="36.952" y="46.899" fill="#ECEAF8" width="12.408" height="1.268"/>
</g>
</svg>
