<?xml version="1.0" encoding="utf-8"?>
<!-- Generator: Adobe Illustrator 19.1.0, SVG Export Plug-In . SVG Version: 6.00 Build 0)  -->
<svg version="1.1" id="아이콘" xmlns="http://www.w3.org/2000/svg" xmlns:xlink="http://www.w3.org/1999/xlink" x="0px" y="0px"
	 viewBox="0 0 342.058 82.977" enable-background="new 0 0 342.058 82.977" xml:space="preserve">
<g>
	<g enable-background="new    ">
		<path fill="#EF8CB7" d="M51.172,44.727v15.78H49.3V48.911c0-0.154,0.005-0.319,0.017-0.495c0.011-0.177,0.024-0.356,0.039-0.54
			l-5.418,9.867c-0.169,0.33-0.426,0.495-0.771,0.495h-0.308c-0.345,0-0.602-0.165-0.771-0.495l-5.528-9.911
			c0.044,0.389,0.066,0.749,0.066,1.079v11.596h-1.872v-15.78h1.575c0.191,0,0.338,0.019,0.44,0.055
			c0.103,0.037,0.202,0.14,0.297,0.309l5.451,9.713c0.088,0.176,0.174,0.359,0.259,0.551c0.084,0.19,0.163,0.385,0.237,0.583
			c0.073-0.198,0.15-0.395,0.231-0.589s0.169-0.38,0.264-0.556l5.352-9.702c0.088-0.169,0.186-0.271,0.292-0.309
			c0.106-0.036,0.255-0.055,0.446-0.055H51.172z"/>
		<path fill="#EF8CB7" d="M64.937,58.767l-0.011,1.74h-9.724v-15.78h9.724v1.74h-7.587v5.241h6.145v1.674h-6.145v5.385H64.937z"/>
		<path fill="#EF8CB7" d="M80.706,44.727v15.78h-1.068c-0.169,0-0.31-0.029-0.424-0.088s-0.226-0.158-0.336-0.298l-9.129-11.893
			c0.015,0.184,0.025,0.363,0.033,0.539c0.007,0.177,0.011,0.342,0.011,0.496v11.243h-1.872v-15.78h1.101
			c0.096,0,0.176,0.006,0.243,0.017c0.066,0.011,0.125,0.029,0.176,0.055c0.051,0.026,0.103,0.063,0.154,0.11
			s0.106,0.108,0.165,0.182l9.129,11.882c-0.015-0.19-0.028-0.376-0.039-0.556c-0.011-0.18-0.017-0.351-0.017-0.513V44.727H80.706z"
			/>
		<path fill="#EF8CB7" d="M90.827,58.811c0.653,0,1.237-0.109,1.751-0.33c0.514-0.22,0.949-0.528,1.305-0.925
			s0.628-0.87,0.815-1.421s0.281-1.156,0.281-1.816v-9.592h2.125v9.592c0,0.91-0.145,1.755-0.435,2.532
			c-0.29,0.778-0.705,1.452-1.245,2.021c-0.54,0.569-1.198,1.016-1.977,1.339c-0.778,0.322-1.652,0.484-2.621,0.484
			c-0.969,0-1.843-0.162-2.621-0.484c-0.778-0.323-1.439-0.77-1.982-1.339c-0.543-0.568-0.96-1.242-1.25-2.021
			c-0.29-0.777-0.435-1.622-0.435-2.532v-9.592h2.125v9.58c0,0.661,0.094,1.267,0.281,1.817s0.458,1.024,0.815,1.421
			c0.356,0.396,0.793,0.706,1.311,0.931C89.588,58.699,90.173,58.811,90.827,58.811z"/>
	</g>
</g>
</svg>
