<?xml version="1.0" encoding="utf-8"?>
<!-- Generator: Adobe Illustrator 19.1.0, SVG Export Plug-In . SVG Version: 6.00 Build 0)  -->
<svg version="1.1" id="아이콘" xmlns="http://www.w3.org/2000/svg" xmlns:xlink="http://www.w3.org/1999/xlink" x="0px" y="0px"
	 viewBox="0 0 342.058 82.977" enable-background="new 0 0 342.058 82.977" xml:space="preserve">
<g>
	<g enable-background="new    ">
		<path fill="#EF8CB7" d="M40.841,46.162c-0.066,0.11-0.138,0.192-0.215,0.248c-0.077,0.055-0.17,0.082-0.281,0.082
			c-0.125,0-0.271-0.063-0.44-0.187c-0.169-0.125-0.38-0.263-0.633-0.413c-0.253-0.15-0.558-0.288-0.914-0.413
			c-0.356-0.125-0.788-0.188-1.294-0.188c-0.478,0-0.897,0.064-1.261,0.192c-0.363,0.129-0.668,0.304-0.914,0.523
			c-0.246,0.221-0.432,0.479-0.556,0.776c-0.125,0.297-0.188,0.618-0.188,0.964c0,0.44,0.108,0.806,0.325,1.096
			c0.216,0.29,0.502,0.537,0.859,0.743c0.356,0.205,0.76,0.384,1.211,0.534c0.452,0.15,0.914,0.307,1.388,0.468
			s0.936,0.344,1.388,0.545c0.451,0.202,0.855,0.457,1.211,0.766c0.356,0.309,0.643,0.687,0.859,1.134
			c0.216,0.448,0.325,0.999,0.325,1.652c0,0.69-0.118,1.338-0.353,1.943s-0.578,1.133-1.029,1.58
			c-0.452,0.448-1.006,0.801-1.663,1.058c-0.657,0.257-1.404,0.385-2.241,0.385c-1.028,0-1.96-0.185-2.797-0.556
			s-1.553-0.872-2.147-1.503l0.617-1.014c0.059-0.08,0.13-0.148,0.215-0.203c0.084-0.056,0.178-0.083,0.281-0.083
			c0.096,0,0.204,0.039,0.325,0.116c0.121,0.076,0.259,0.174,0.413,0.291c0.154,0.118,0.331,0.246,0.529,0.386
			s0.424,0.269,0.677,0.386s0.541,0.215,0.864,0.292c0.323,0.076,0.687,0.115,1.09,0.115c0.506,0,0.958-0.069,1.354-0.209
			s0.732-0.336,1.007-0.59c0.275-0.253,0.486-0.556,0.633-0.908s0.22-0.745,0.22-1.178c0-0.478-0.108-0.868-0.325-1.173
			c-0.217-0.305-0.501-0.561-0.854-0.766s-0.756-0.38-1.211-0.523c-0.455-0.143-0.917-0.29-1.387-0.44
			c-0.47-0.15-0.933-0.324-1.388-0.522s-0.859-0.455-1.211-0.771c-0.352-0.315-0.637-0.71-0.854-1.184
			c-0.216-0.474-0.325-1.059-0.325-1.757c0-0.558,0.108-1.097,0.325-1.618c0.217-0.521,0.532-0.983,0.947-1.388
			c0.415-0.403,0.925-0.727,1.531-0.969c0.605-0.242,1.301-0.363,2.087-0.363c0.881,0,1.683,0.139,2.406,0.418
			s1.36,0.683,1.911,1.212L40.841,46.162z"/>
		<path fill="#EF8CB7" d="M57.502,43.695v15.78h-1.068c-0.169,0-0.31-0.029-0.424-0.088s-0.226-0.158-0.336-0.298l-9.129-11.893
			c0.015,0.184,0.025,0.363,0.033,0.539c0.007,0.177,0.011,0.342,0.011,0.496v11.243h-1.872v-15.78h1.101
			c0.096,0,0.176,0.006,0.243,0.017c0.066,0.011,0.125,0.029,0.176,0.055c0.051,0.026,0.103,0.063,0.154,0.11
			s0.106,0.108,0.165,0.182l9.129,11.882c-0.015-0.19-0.028-0.376-0.039-0.556c-0.011-0.18-0.017-0.351-0.017-0.513V43.695H57.502z"
			/>
		<path fill="#EF8CB7" d="M69.604,46.162c-0.066,0.11-0.138,0.192-0.215,0.248c-0.077,0.055-0.17,0.082-0.281,0.082
			c-0.125,0-0.271-0.063-0.44-0.187c-0.169-0.125-0.38-0.263-0.633-0.413c-0.253-0.15-0.558-0.288-0.914-0.413
			c-0.356-0.125-0.788-0.188-1.294-0.188c-0.478,0-0.897,0.064-1.261,0.192c-0.363,0.129-0.668,0.304-0.914,0.523
			c-0.246,0.221-0.432,0.479-0.556,0.776c-0.125,0.297-0.188,0.618-0.188,0.964c0,0.44,0.108,0.806,0.325,1.096
			c0.216,0.29,0.502,0.537,0.859,0.743c0.356,0.205,0.76,0.384,1.211,0.534c0.452,0.15,0.914,0.307,1.388,0.468
			s0.936,0.344,1.388,0.545c0.451,0.202,0.855,0.457,1.211,0.766c0.356,0.309,0.643,0.687,0.859,1.134
			c0.216,0.448,0.325,0.999,0.325,1.652c0,0.69-0.118,1.338-0.353,1.943s-0.578,1.133-1.029,1.58
			c-0.452,0.448-1.006,0.801-1.663,1.058c-0.657,0.257-1.404,0.385-2.241,0.385c-1.028,0-1.96-0.185-2.797-0.556
			s-1.553-0.872-2.147-1.503l0.617-1.014c0.059-0.08,0.13-0.148,0.215-0.203c0.084-0.056,0.178-0.083,0.281-0.083
			c0.096,0,0.204,0.039,0.325,0.116c0.121,0.076,0.259,0.174,0.413,0.291c0.154,0.118,0.331,0.246,0.529,0.386
			s0.424,0.269,0.677,0.386s0.541,0.215,0.864,0.292c0.323,0.076,0.687,0.115,1.09,0.115c0.506,0,0.958-0.069,1.354-0.209
			s0.732-0.336,1.007-0.59c0.275-0.253,0.486-0.556,0.633-0.908s0.22-0.745,0.22-1.178c0-0.478-0.108-0.868-0.325-1.173
			c-0.217-0.305-0.501-0.561-0.854-0.766s-0.756-0.38-1.211-0.523c-0.455-0.143-0.917-0.29-1.387-0.44
			c-0.47-0.15-0.933-0.324-1.388-0.522s-0.859-0.455-1.211-0.771c-0.352-0.315-0.637-0.71-0.854-1.184
			c-0.216-0.474-0.325-1.059-0.325-1.757c0-0.558,0.108-1.097,0.325-1.618c0.217-0.521,0.532-0.983,0.947-1.388
			c0.415-0.403,0.925-0.727,1.531-0.969c0.605-0.242,1.301-0.363,2.087-0.363c0.881,0,1.683,0.139,2.406,0.418
			s1.36,0.683,1.911,1.212L69.604,46.162z"/>
	</g>
</g>
</svg>
