<?xml version="1.0" encoding="utf-8"?>
<!-- Generator: Adobe Illustrator 19.1.0, SVG Export Plug-In . SVG Version: 6.00 Build 0)  -->
<svg version="1.1" id="아이콘" xmlns="http://www.w3.org/2000/svg" xmlns:xlink="http://www.w3.org/1999/xlink" x="0px" y="0px"
	 viewBox="0 0 342.058 72.5" enable-background="new 0 0 342.058 72.5" xml:space="preserve">
<g enable-background="new    ">
	<path fill="#ECEAF8" d="M114.577,39.185H95.725V36.96h8.259v-1.696h-4.075v-7.687h10.483v7.687h-4.008v1.696h8.193V39.185z
		 M110.503,47.818h-2.356v-5.021h-8.436V40.55h10.792V47.818z M108.036,33.062v-3.26h-5.792v3.26H108.036z"/>
	<path fill="#ECEAF8" d="M127.02,39.625l-1.608,1.695l-3.656-2.951c-0.749,0.676-1.545,1.263-2.39,1.762
		c-0.844,0.5-1.678,0.882-2.5,1.146l-1.454-1.784c0.734-0.234,1.454-0.539,2.158-0.914c0.705-0.374,1.358-0.789,1.96-1.244
		c0.587-0.47,1.112-0.973,1.575-1.509c0.463-0.535,0.818-1.082,1.068-1.641h-5.638V31.96h8.7c-0.088,0.881-0.301,1.715-0.639,2.5
		c-0.338,0.786-0.764,1.517-1.278,2.191L127.02,39.625z M124.113,30.837c-0.294,0.03-0.804,0.056-1.531,0.077
		c-0.727,0.022-1.53,0.019-2.412-0.011c-0.763-0.073-1.398-0.228-1.905-0.463c-0.507-0.234-0.826-0.41-0.958-0.528l0.749-1.806
		c0.073,0.029,0.184,0.073,0.331,0.132c0.146,0.059,0.315,0.118,0.506,0.176c0.206,0.06,0.433,0.114,0.683,0.166
		c0.25,0.051,0.521,0.084,0.814,0.099c0.778,0.044,1.516,0.052,2.214,0.022c0.697-0.029,1.2-0.059,1.508-0.089V30.837z
		 M134.751,36.476h-3.59v10.351h-2.356V26.786h2.356v7.466h3.59V36.476z"/>
</g>
<g>
	<g>
		<path fill="#ECEAF8" d="M48.562,53.25h-15.55c-0.552,0-1-0.448-1-1v-32c0-0.552,0.448-1,1-1h24.133c0.552,0,1,0.448,1,1v24.197
			c0,0.552-0.448,1-1,1h-7.583v6.803C49.562,52.802,49.115,53.25,48.562,53.25z M34.013,51.25h13.55v-6.803c0-0.552,0.448-1,1-1
			h7.583V21.25H34.013V51.25z"/>
		
			<rect x="51.854" y="42.549" transform="matrix(0.6727 0.7399 -0.7399 0.6727 53.0697 -23.2829)" fill="#ECEAF8" width="2" height="11.6"/>
	</g>
	<g>
		<rect x="37.166" y="26.549" fill="#ECEAF8" width="15.825" height="2"/>
		<rect x="37.166" y="30.304" fill="#ECEAF8" width="15.825" height="2"/>
		<rect x="37.166" y="34.126" fill="#ECEAF8" width="15.825" height="2"/>
	</g>
</g>
</svg>
