<?xml version="1.0" encoding="utf-8"?>
<!-- Generator: Adobe Illustrator 19.1.0, SVG Export Plug-In . SVG Version: 6.00 Build 0)  -->
<svg version="1.1" id="아이콘" xmlns="http://www.w3.org/2000/svg" xmlns:xlink="http://www.w3.org/1999/xlink" x="0px" y="0px"
	 viewBox="0 0 342.058 72.5" enable-background="new 0 0 342.058 72.5" xml:space="preserve">
<g>
	<path fill="#ECEAF8" d="M42.923,46.588h4.068V36.414h3.021l0.372-4.068h-3.235v-1.628c0-0.793,0.528-0.98,0.899-0.98h2.282v-3.484
		l-3.143-0.012c-3.489,0-4.282,2.6-4.282,4.261v1.843h-2.018v4.068h2.035V46.588z"/>
</g>
<g enable-background="new    ">
	<path fill="#ECEAF8" d="M100.383,31.052v5.517h6.486v1.74h-6.486v6.783h-2.136v-15.78h9.724v1.74H100.383z"/>
	<path fill="#ECEAF8" d="M108.389,35.511c0.617-0.595,1.281-1.039,1.993-1.333c0.712-0.293,1.501-0.44,2.367-0.44
		c0.624,0,1.179,0.103,1.663,0.309c0.484,0.205,0.892,0.492,1.222,0.858c0.331,0.367,0.58,0.812,0.749,1.333
		c0.168,0.521,0.253,1.094,0.253,1.718v7.136h-0.87c-0.191,0-0.338-0.031-0.44-0.094c-0.103-0.063-0.184-0.186-0.242-0.369
		l-0.22-1.057c-0.294,0.271-0.58,0.512-0.859,0.721c-0.279,0.21-0.572,0.386-0.881,0.529c-0.308,0.143-0.637,0.253-0.985,0.33
		c-0.349,0.077-0.736,0.115-1.162,0.115c-0.433,0-0.84-0.061-1.222-0.182s-0.714-0.303-0.997-0.545s-0.506-0.549-0.672-0.919
		c-0.165-0.371-0.248-0.81-0.248-1.316c0-0.44,0.121-0.864,0.363-1.271c0.242-0.408,0.635-0.77,1.178-1.085s1.252-0.574,2.125-0.776
		s1.945-0.317,3.215-0.347v-0.87c0-0.866-0.187-1.521-0.562-1.966s-0.921-0.666-1.641-0.666c-0.485,0-0.89,0.061-1.217,0.182
		s-0.609,0.257-0.848,0.407s-0.444,0.286-0.617,0.407s-0.343,0.182-0.512,0.182c-0.132,0-0.246-0.034-0.342-0.104
		c-0.095-0.069-0.176-0.155-0.242-0.259L108.389,35.511z M114.721,40.07c-0.903,0.029-1.672,0.101-2.307,0.215
		c-0.635,0.114-1.153,0.263-1.553,0.446c-0.4,0.184-0.69,0.399-0.87,0.649c-0.18,0.25-0.27,0.528-0.27,0.837
		c0,0.294,0.048,0.547,0.144,0.76c0.095,0.213,0.226,0.388,0.391,0.523c0.166,0.136,0.36,0.234,0.584,0.297
		c0.224,0.063,0.464,0.094,0.721,0.094c0.345,0,0.661-0.035,0.947-0.104c0.287-0.07,0.556-0.171,0.81-0.303
		c0.253-0.133,0.496-0.29,0.727-0.474c0.231-0.184,0.457-0.393,0.677-0.628V40.07z"/>
	<path fill="#ECEAF8" d="M127.385,35.919c-0.059,0.081-0.118,0.143-0.176,0.188c-0.059,0.044-0.14,0.065-0.242,0.065
		c-0.11,0-0.231-0.046-0.364-0.138c-0.132-0.092-0.295-0.192-0.49-0.303c-0.195-0.11-0.434-0.211-0.716-0.303
		c-0.283-0.092-0.63-0.138-1.041-0.138c-0.551,0-1.035,0.098-1.454,0.292s-0.77,0.476-1.052,0.843
		c-0.283,0.367-0.496,0.811-0.639,1.332s-0.215,1.104-0.215,1.751c0,0.676,0.077,1.275,0.231,1.801
		c0.154,0.524,0.373,0.965,0.655,1.321c0.283,0.355,0.624,0.627,1.024,0.814c0.4,0.188,0.85,0.281,1.349,0.281
		c0.477,0,0.87-0.057,1.178-0.171c0.308-0.114,0.563-0.24,0.765-0.38c0.202-0.14,0.371-0.266,0.507-0.38
		c0.136-0.114,0.27-0.171,0.402-0.171c0.161,0,0.286,0.063,0.375,0.188l0.55,0.716c-0.242,0.301-0.518,0.558-0.826,0.771
		c-0.309,0.213-0.641,0.391-0.997,0.534c-0.356,0.144-0.729,0.248-1.118,0.313c-0.39,0.066-0.786,0.1-1.189,0.1
		c-0.698,0-1.345-0.129-1.944-0.386c-0.598-0.257-1.118-0.629-1.558-1.117s-0.786-1.089-1.035-1.801s-0.375-1.523-0.375-2.434
		c0-0.83,0.116-1.597,0.347-2.302c0.231-0.705,0.569-1.312,1.013-1.822c0.444-0.51,0.991-0.908,1.641-1.195
		c0.65-0.286,1.396-0.429,2.241-0.429c0.786,0,1.478,0.126,2.076,0.38c0.598,0.253,1.128,0.611,1.591,1.073L127.385,35.919z"/>
	<path fill="#ECEAF8" d="M138.991,43.528c-0.242,0.294-0.532,0.549-0.87,0.765c-0.338,0.217-0.7,0.396-1.085,0.534
		c-0.385,0.14-0.784,0.244-1.195,0.314c-0.411,0.069-0.819,0.104-1.222,0.104c-0.771,0-1.481-0.131-2.131-0.391
		c-0.65-0.261-1.211-0.643-1.685-1.146c-0.473-0.503-0.842-1.125-1.106-1.867c-0.264-0.741-0.396-1.593-0.396-2.555
		c0-0.777,0.119-1.505,0.358-2.18c0.238-0.676,0.582-1.261,1.03-1.757c0.447-0.495,0.995-0.885,1.641-1.167
		c0.646-0.283,1.373-0.424,2.18-0.424c0.668,0,1.287,0.111,1.855,0.336c0.569,0.224,1.061,0.547,1.476,0.969
		c0.415,0.422,0.74,0.943,0.975,1.563s0.353,1.327,0.353,2.12c0,0.309-0.033,0.514-0.099,0.616
		c-0.066,0.104-0.191,0.154-0.375,0.154h-7.455c0.022,0.705,0.119,1.318,0.292,1.839c0.172,0.521,0.413,0.957,0.721,1.306
		s0.675,0.609,1.101,0.781c0.426,0.173,0.903,0.259,1.432,0.259c0.492,0,0.916-0.057,1.272-0.171
		c0.356-0.113,0.663-0.236,0.919-0.368c0.257-0.133,0.472-0.255,0.644-0.369s0.321-0.171,0.446-0.171
		c0.161,0,0.286,0.063,0.375,0.188L138.991,43.528z M137.405,38.298c0-0.456-0.064-0.872-0.193-1.25s-0.316-0.705-0.562-0.98
		c-0.246-0.275-0.545-0.488-0.897-0.639c-0.353-0.15-0.753-0.226-1.201-0.226c-0.939,0-1.683,0.273-2.229,0.82
		c-0.547,0.547-0.887,1.305-1.019,2.274H137.405z"/>
	<path fill="#ECEAF8" d="M143.539,35.544c0.47-0.543,1-0.976,1.591-1.299c0.591-0.323,1.272-0.484,2.042-0.484
		c0.653,0,1.243,0.125,1.768,0.374c0.525,0.25,0.971,0.611,1.338,1.085s0.648,1.048,0.842,1.724
		c0.195,0.675,0.292,1.435,0.292,2.279c0,0.902-0.11,1.725-0.331,2.467c-0.22,0.741-0.538,1.374-0.952,1.899
		c-0.415,0.524-0.92,0.933-1.514,1.222c-0.595,0.29-1.263,0.436-2.004,0.436c-0.734,0-1.353-0.138-1.855-0.413
		s-0.941-0.666-1.316-1.173l-0.099,1.013c-0.059,0.279-0.228,0.419-0.507,0.419h-1.266V28.871h1.971V35.544z M143.539,42.405
		c0.359,0.484,0.754,0.825,1.184,1.023c0.43,0.198,0.901,0.298,1.415,0.298c1.05,0,1.854-0.371,2.412-1.112
		c0.558-0.741,0.837-1.847,0.837-3.314c0-1.366-0.248-2.37-0.743-3.012c-0.496-0.643-1.202-0.964-2.12-0.964
		c-0.639,0-1.195,0.146-1.668,0.44s-0.912,0.709-1.316,1.244V42.405z"/>
	<path fill="#ECEAF8" d="M158.603,33.76c0.815,0,1.549,0.136,2.202,0.407s1.211,0.657,1.674,1.156
		c0.463,0.499,0.817,1.103,1.063,1.812c0.246,0.708,0.369,1.499,0.369,2.373c0,0.881-0.123,1.674-0.369,2.379
		c-0.246,0.704-0.6,1.307-1.063,1.806c-0.462,0.499-1.021,0.883-1.674,1.15c-0.653,0.269-1.387,0.402-2.202,0.402
		c-0.822,0-1.562-0.134-2.219-0.402c-0.657-0.268-1.217-0.651-1.68-1.15s-0.817-1.102-1.063-1.806
		c-0.246-0.705-0.369-1.498-0.369-2.379c0-0.874,0.123-1.665,0.369-2.373c0.246-0.709,0.6-1.313,1.063-1.812s1.022-0.885,1.68-1.156
		C157.041,33.896,157.781,33.76,158.603,33.76z M158.603,43.715c1.101,0,1.923-0.368,2.467-1.106
		c0.543-0.737,0.815-1.768,0.815-3.089c0-1.328-0.272-2.363-0.815-3.105c-0.543-0.741-1.366-1.112-2.467-1.112
		c-0.558,0-1.044,0.096-1.459,0.287c-0.415,0.19-0.76,0.466-1.035,0.825c-0.275,0.36-0.481,0.803-0.617,1.327
		c-0.136,0.525-0.204,1.118-0.204,1.778c0,1.321,0.273,2.352,0.82,3.089C156.656,43.346,157.487,43.715,158.603,43.715z"/>
	<path fill="#ECEAF8" d="M171.091,33.76c0.815,0,1.549,0.136,2.202,0.407s1.211,0.657,1.674,1.156
		c0.463,0.499,0.817,1.103,1.063,1.812c0.246,0.708,0.369,1.499,0.369,2.373c0,0.881-0.123,1.674-0.369,2.379
		c-0.246,0.704-0.6,1.307-1.063,1.806c-0.462,0.499-1.021,0.883-1.674,1.15c-0.653,0.269-1.387,0.402-2.202,0.402
		c-0.822,0-1.562-0.134-2.219-0.402c-0.657-0.268-1.217-0.651-1.68-1.15s-0.817-1.102-1.063-1.806
		c-0.246-0.705-0.369-1.498-0.369-2.379c0-0.874,0.123-1.665,0.369-2.373c0.246-0.709,0.6-1.313,1.063-1.812s1.022-0.885,1.68-1.156
		C169.529,33.896,170.268,33.76,171.091,33.76z M171.091,43.715c1.101,0,1.923-0.368,2.467-1.106
		c0.543-0.737,0.815-1.768,0.815-3.089c0-1.328-0.272-2.363-0.815-3.105c-0.543-0.741-1.366-1.112-2.467-1.112
		c-0.558,0-1.044,0.096-1.459,0.287c-0.415,0.19-0.76,0.466-1.035,0.825c-0.275,0.36-0.481,0.803-0.617,1.327
		c-0.136,0.525-0.204,1.118-0.204,1.778c0,1.321,0.273,2.352,0.82,3.089C169.143,43.346,169.975,43.715,171.091,43.715z"/>
	<path fill="#ECEAF8" d="M180.847,28.871v9.548h0.506c0.147,0,0.27-0.021,0.369-0.061c0.099-0.041,0.204-0.123,0.314-0.248
		l3.523-3.777c0.103-0.125,0.211-0.222,0.325-0.292c0.114-0.069,0.266-0.104,0.457-0.104h1.773l-4.108,4.372
		c-0.198,0.249-0.411,0.444-0.639,0.583c0.132,0.089,0.251,0.189,0.358,0.304c0.106,0.113,0.208,0.244,0.303,0.391l4.36,5.506h-1.75
		c-0.169,0-0.314-0.027-0.435-0.083c-0.121-0.055-0.226-0.155-0.314-0.303l-3.667-4.569c-0.11-0.154-0.219-0.255-0.325-0.303
		c-0.107-0.048-0.27-0.072-0.49-0.072h-0.562v5.33h-1.971V28.871H180.847z"/>
</g>
</svg>
