<?xml version="1.0" encoding="utf-8"?>
<!-- Generator: Adobe Illustrator 19.1.0, SVG Export Plug-In . SVG Version: 6.00 Build 0)  -->
<svg version="1.1" id="아이콘" xmlns="http://www.w3.org/2000/svg" xmlns:xlink="http://www.w3.org/1999/xlink" x="0px" y="0px"
	 viewBox="0 0 342.058 72.5" enable-background="new 0 0 342.058 72.5" xml:space="preserve">
<g>
	<polygon fill="#ECEAF8" points="42.646,35.343 43.873,35.343 43.261,33.388 	"/>
	<path fill="#ECEAF8" d="M45.305,26.768c-5.618,0-10.173,3.518-10.173,7.855c0,2.839,1.95,5.327,4.872,6.707l-1.002,3.627
		c0,0-0.083,0.34,0.216,0.257c0.329-0.089,3.39-2.25,4.251-2.86c0.595,0.082,1.208,0.127,1.836,0.127
		c5.619,0,10.172-3.52,10.172-7.857C55.477,30.287,50.924,26.768,45.305,26.768z M40.383,36.782c0,0.307-0.26,0.559-0.582,0.559
		c-0.321,0-0.583-0.252-0.583-0.559v-3.457c0-0.013,0.001-0.022,0.002-0.033h-0.919c-0.305,0-0.552-0.252-0.552-0.559
		s0.247-0.559,0.552-0.559h3.043c0.303,0,0.551,0.252,0.551,0.559s-0.248,0.559-0.551,0.559h-0.962c0,0.011,0.001,0.019,0.001,0.033
		V36.782z M45.088,37.326c-0.299,0.09-0.627-0.113-0.731-0.45l-0.178-0.565h-1.836l-0.176,0.565
		c-0.105,0.337-0.434,0.541-0.733,0.45c-0.3-0.087-0.455-0.426-0.35-0.765l1.416-3.96c0.085-0.273,0.319-0.459,0.564-0.473l0,0h0.41
		l0,0c0.238,0.02,0.466,0.204,0.549,0.473l1.416,3.96C45.544,36.9,45.387,37.239,45.088,37.326z M48.192,37.298h-1.813
		c-0.314,0-0.567-0.246-0.567-0.547c0-0.004,0-0.005,0-0.005v-0.011v-4.081c0-0.32,0.275-0.582,0.615-0.582
		c0.34,0,0.614,0.261,0.614,0.582v3.55h1.15c0.313,0,0.566,0.246,0.566,0.547C48.758,37.053,48.505,37.298,48.192,37.298z
		 M52.538,37.256c-0.262,0.212-0.632,0.184-0.829-0.059l-1.418-1.763l-0.108,0.108v1.147c0,0.358-0.292,0.652-0.653,0.652
		c-0.36,0-0.652-0.294-0.652-0.652v-3.907c0-0.363,0.293-0.654,0.652-0.654c0.361,0,0.653,0.291,0.653,0.654v1.162l1.515-1.515
		c0.22-0.218,0.578-0.218,0.799,0c0.221,0.222,0.221,0.578,0,0.801l-1.34,1.339l1.5,1.865C52.854,36.678,52.8,37.047,52.538,37.256z
		"/>
</g>
<g enable-background="new    ">
	<path fill="#ECEAF8" d="M100.372,34.391h0.804c0.279,0,0.503-0.035,0.672-0.105c0.169-0.069,0.323-0.188,0.462-0.357l5.253-5.946
		c0.146-0.191,0.301-0.323,0.462-0.396c0.161-0.073,0.359-0.11,0.595-0.11h1.806l-6.012,6.795c-0.147,0.176-0.289,0.32-0.424,0.435
		s-0.281,0.207-0.435,0.28c0.198,0.066,0.378,0.164,0.54,0.292c0.161,0.129,0.319,0.296,0.473,0.501l6.277,7.478h-1.85
		c-0.14,0-0.259-0.009-0.358-0.027s-0.186-0.048-0.259-0.088c-0.074-0.041-0.138-0.089-0.193-0.144s-0.108-0.119-0.16-0.192
		l-5.44-6.267c-0.147-0.183-0.305-0.313-0.474-0.391s-0.426-0.115-0.771-0.115h-0.969v7.224h-2.125v-15.78h2.125V34.391z"/>
	<path fill="#ECEAF8" d="M112.023,33.675c0.617-0.595,1.281-1.039,1.993-1.333c0.712-0.293,1.501-0.44,2.367-0.44
		c0.624,0,1.179,0.103,1.663,0.309c0.484,0.205,0.892,0.492,1.222,0.858c0.331,0.367,0.58,0.812,0.749,1.333
		c0.168,0.521,0.253,1.094,0.253,1.718v7.136h-0.87c-0.191,0-0.338-0.031-0.44-0.094c-0.103-0.063-0.184-0.186-0.242-0.369
		l-0.22-1.057c-0.294,0.271-0.58,0.512-0.859,0.721c-0.279,0.21-0.572,0.386-0.881,0.529c-0.308,0.143-0.637,0.253-0.985,0.33
		c-0.349,0.077-0.736,0.115-1.162,0.115c-0.433,0-0.84-0.061-1.222-0.182s-0.714-0.303-0.997-0.545s-0.506-0.549-0.672-0.919
		c-0.165-0.371-0.248-0.81-0.248-1.316c0-0.44,0.121-0.864,0.363-1.271c0.242-0.408,0.635-0.77,1.178-1.085s1.252-0.574,2.125-0.776
		s1.945-0.317,3.215-0.347v-0.87c0-0.866-0.187-1.521-0.562-1.966s-0.921-0.666-1.641-0.666c-0.485,0-0.89,0.061-1.217,0.182
		s-0.609,0.257-0.848,0.407s-0.444,0.286-0.617,0.407s-0.343,0.182-0.512,0.182c-0.132,0-0.246-0.034-0.342-0.104
		c-0.095-0.069-0.176-0.155-0.242-0.259L112.023,33.675z M118.354,38.234c-0.903,0.029-1.672,0.101-2.307,0.215
		c-0.635,0.114-1.153,0.263-1.553,0.446c-0.4,0.184-0.69,0.399-0.87,0.649c-0.18,0.25-0.27,0.528-0.27,0.837
		c0,0.294,0.048,0.547,0.144,0.76c0.095,0.213,0.226,0.388,0.391,0.523c0.166,0.136,0.36,0.234,0.584,0.297
		c0.224,0.063,0.464,0.094,0.721,0.094c0.345,0,0.661-0.035,0.947-0.104c0.287-0.07,0.556-0.171,0.81-0.303
		c0.253-0.133,0.496-0.29,0.727-0.474c0.231-0.184,0.457-0.393,0.677-0.628V38.234z"/>
	<path fill="#ECEAF8" d="M125.226,27.035v9.548h0.506c0.147,0,0.27-0.021,0.369-0.061c0.099-0.041,0.204-0.123,0.314-0.248
		l3.523-3.777c0.103-0.125,0.211-0.222,0.325-0.292c0.114-0.069,0.266-0.104,0.457-0.104h1.773l-4.108,4.372
		c-0.198,0.249-0.411,0.444-0.639,0.583c0.132,0.089,0.251,0.189,0.358,0.304c0.106,0.113,0.208,0.244,0.303,0.391l4.36,5.506h-1.75
		c-0.169,0-0.314-0.027-0.435-0.083c-0.121-0.055-0.226-0.155-0.314-0.303l-3.667-4.569c-0.11-0.154-0.219-0.255-0.325-0.303
		c-0.107-0.048-0.27-0.072-0.49-0.072h-0.562v5.33h-1.971V27.035H125.226z"/>
	<path fill="#ECEAF8" d="M134.157,33.675c0.617-0.595,1.281-1.039,1.993-1.333c0.712-0.293,1.501-0.44,2.367-0.44
		c0.624,0,1.179,0.103,1.663,0.309c0.484,0.205,0.892,0.492,1.222,0.858c0.331,0.367,0.58,0.812,0.749,1.333
		c0.168,0.521,0.253,1.094,0.253,1.718v7.136h-0.87c-0.191,0-0.338-0.031-0.44-0.094c-0.103-0.063-0.184-0.186-0.242-0.369
		l-0.22-1.057c-0.294,0.271-0.58,0.512-0.859,0.721c-0.279,0.21-0.572,0.386-0.881,0.529c-0.308,0.143-0.637,0.253-0.985,0.33
		c-0.349,0.077-0.736,0.115-1.162,0.115c-0.433,0-0.84-0.061-1.222-0.182s-0.714-0.303-0.997-0.545s-0.506-0.549-0.672-0.919
		c-0.165-0.371-0.248-0.81-0.248-1.316c0-0.44,0.121-0.864,0.363-1.271c0.242-0.408,0.635-0.77,1.178-1.085s1.252-0.574,2.125-0.776
		s1.945-0.317,3.215-0.347v-0.87c0-0.866-0.187-1.521-0.562-1.966s-0.921-0.666-1.641-0.666c-0.485,0-0.89,0.061-1.217,0.182
		s-0.609,0.257-0.848,0.407s-0.444,0.286-0.617,0.407s-0.343,0.182-0.512,0.182c-0.132,0-0.246-0.034-0.342-0.104
		c-0.095-0.069-0.176-0.155-0.242-0.259L134.157,33.675z M140.488,38.234c-0.903,0.029-1.672,0.101-2.307,0.215
		c-0.635,0.114-1.153,0.263-1.553,0.446c-0.4,0.184-0.69,0.399-0.87,0.649c-0.18,0.25-0.27,0.528-0.27,0.837
		c0,0.294,0.048,0.547,0.144,0.76c0.095,0.213,0.226,0.388,0.391,0.523c0.166,0.136,0.36,0.234,0.584,0.297
		c0.224,0.063,0.464,0.094,0.721,0.094c0.345,0,0.661-0.035,0.947-0.104c0.287-0.07,0.556-0.171,0.81-0.303
		c0.253-0.133,0.496-0.29,0.727-0.474c0.231-0.184,0.457-0.393,0.677-0.628V38.234z"/>
	<path fill="#ECEAF8" d="M150.091,31.924c0.815,0,1.549,0.136,2.202,0.407s1.211,0.657,1.674,1.156
		c0.463,0.499,0.817,1.103,1.063,1.812c0.246,0.708,0.369,1.499,0.369,2.373c0,0.881-0.123,1.674-0.369,2.379
		c-0.246,0.704-0.6,1.307-1.063,1.806c-0.462,0.499-1.021,0.883-1.674,1.15c-0.653,0.269-1.387,0.402-2.202,0.402
		c-0.822,0-1.562-0.134-2.219-0.402c-0.657-0.268-1.217-0.651-1.68-1.15s-0.817-1.102-1.063-1.806
		c-0.246-0.705-0.369-1.498-0.369-2.379c0-0.874,0.123-1.665,0.369-2.373c0.246-0.709,0.6-1.313,1.063-1.812s1.022-0.885,1.68-1.156
		C148.529,32.06,149.268,31.924,150.091,31.924z M150.091,41.878c1.101,0,1.923-0.368,2.467-1.106
		c0.543-0.737,0.815-1.768,0.815-3.089c0-1.328-0.272-2.363-0.815-3.105c-0.543-0.741-1.366-1.112-2.467-1.112
		c-0.558,0-1.044,0.096-1.459,0.287c-0.415,0.19-0.76,0.466-1.035,0.825c-0.275,0.36-0.481,0.803-0.617,1.327
		c-0.136,0.525-0.204,1.118-0.204,1.778c0,1.321,0.273,2.352,0.82,3.089C148.143,41.51,148.975,41.878,150.091,41.878z"/>
	<path fill="#ECEAF8" d="M161.103,43.431c-0.881,0-1.558-0.245-2.032-0.737s-0.71-1.2-0.71-2.125v-6.828h-1.343
		c-0.118,0-0.217-0.034-0.297-0.104c-0.081-0.069-0.121-0.178-0.121-0.325V32.53l1.828-0.231l0.451-3.446
		c0.022-0.11,0.072-0.2,0.149-0.271c0.077-0.069,0.178-0.104,0.303-0.104h0.991v3.844h3.226v1.42h-3.226v6.695
		c0,0.47,0.113,0.819,0.341,1.047c0.228,0.228,0.521,0.341,0.881,0.341c0.206,0,0.383-0.027,0.534-0.082
		c0.15-0.056,0.281-0.116,0.391-0.183c0.11-0.065,0.204-0.126,0.281-0.182c0.077-0.055,0.145-0.082,0.204-0.082
		c0.103,0,0.194,0.063,0.275,0.188l0.573,0.936c-0.338,0.315-0.745,0.563-1.222,0.743C162.101,43.341,161.609,43.431,161.103,43.431
		z"/>
	<path fill="#ECEAF8" d="M165.288,33.675c0.617-0.595,1.281-1.039,1.993-1.333c0.712-0.293,1.501-0.44,2.367-0.44
		c0.624,0,1.179,0.103,1.663,0.309c0.484,0.205,0.892,0.492,1.222,0.858c0.331,0.367,0.58,0.812,0.749,1.333
		c0.168,0.521,0.253,1.094,0.253,1.718v7.136h-0.87c-0.191,0-0.338-0.031-0.44-0.094c-0.103-0.063-0.184-0.186-0.242-0.369
		l-0.22-1.057c-0.294,0.271-0.58,0.512-0.859,0.721c-0.279,0.21-0.572,0.386-0.881,0.529c-0.308,0.143-0.637,0.253-0.985,0.33
		c-0.349,0.077-0.736,0.115-1.162,0.115c-0.433,0-0.84-0.061-1.222-0.182s-0.714-0.303-0.997-0.545s-0.506-0.549-0.672-0.919
		c-0.165-0.371-0.248-0.81-0.248-1.316c0-0.44,0.121-0.864,0.363-1.271c0.242-0.408,0.635-0.77,1.178-1.085s1.252-0.574,2.125-0.776
		s1.945-0.317,3.215-0.347v-0.87c0-0.866-0.187-1.521-0.562-1.966s-0.921-0.666-1.641-0.666c-0.485,0-0.89,0.061-1.217,0.182
		s-0.609,0.257-0.848,0.407s-0.444,0.286-0.617,0.407s-0.343,0.182-0.512,0.182c-0.132,0-0.246-0.034-0.342-0.104
		c-0.095-0.069-0.176-0.155-0.242-0.259L165.288,33.675z M171.619,38.234c-0.903,0.029-1.672,0.101-2.307,0.215
		c-0.635,0.114-1.153,0.263-1.553,0.446c-0.4,0.184-0.69,0.399-0.87,0.649c-0.18,0.25-0.27,0.528-0.27,0.837
		c0,0.294,0.048,0.547,0.144,0.76c0.095,0.213,0.226,0.388,0.391,0.523c0.166,0.136,0.36,0.234,0.584,0.297
		c0.224,0.063,0.464,0.094,0.721,0.094c0.345,0,0.661-0.035,0.947-0.104c0.287-0.07,0.556-0.171,0.81-0.303
		c0.253-0.133,0.496-0.29,0.727-0.474c0.231-0.184,0.457-0.393,0.677-0.628V38.234z"/>
	<path fill="#ECEAF8" d="M178.546,27.035v16.221h-1.96V27.035H178.546z"/>
	<path fill="#ECEAF8" d="M183.688,27.035v9.548h0.506c0.147,0,0.27-0.021,0.369-0.061c0.099-0.041,0.204-0.123,0.314-0.248
		l3.523-3.777c0.103-0.125,0.211-0.222,0.325-0.292c0.114-0.069,0.266-0.104,0.457-0.104h1.773l-4.108,4.372
		c-0.198,0.249-0.411,0.444-0.639,0.583c0.132,0.089,0.251,0.189,0.358,0.304c0.106,0.113,0.208,0.244,0.303,0.391l4.36,5.506h-1.75
		c-0.169,0-0.314-0.027-0.435-0.083c-0.121-0.055-0.226-0.155-0.314-0.303l-3.667-4.569c-0.11-0.154-0.219-0.255-0.325-0.303
		c-0.107-0.048-0.27-0.072-0.49-0.072h-0.562v5.33h-1.971V27.035H183.688z"/>
</g>
</svg>
