<?xml version="1.0" encoding="utf-8"?>
<!-- Generator: Adobe Illustrator 19.1.0, SVG Export Plug-In . SVG Version: 6.00 Build 0)  -->
<svg version="1.1" id="아이콘" xmlns="http://www.w3.org/2000/svg" xmlns:xlink="http://www.w3.org/1999/xlink" x="0px" y="0px"
	 viewBox="0 0 342.058 72.5" enable-background="new 0 0 342.058 72.5" xml:space="preserve">
<g enable-background="new    ">
	<path fill="#ECEAF8" d="M110.285,32.955c0,0.939-0.18,1.718-0.54,2.334c-0.36,0.617-0.819,1.109-1.376,1.476
		c-0.559,0.382-1.186,0.646-1.883,0.793c-0.698,0.147-1.384,0.221-2.059,0.221h-1.3v-2.159h1.278c0.411,0,0.818-0.036,1.222-0.109
		s0.767-0.206,1.09-0.396c0.308-0.206,0.562-0.481,0.76-0.826s0.297-0.789,0.297-1.332c0-0.485-0.11-0.889-0.331-1.212
		c-0.22-0.322-0.5-0.587-0.837-0.793c-0.353-0.205-0.742-0.353-1.167-0.44c-0.426-0.088-0.852-0.132-1.278-0.132h-1.828v13.721
		h-2.379V28.263h4.229c0.734,0,1.464,0.073,2.191,0.22c0.727,0.147,1.376,0.396,1.949,0.749c0.587,0.367,1.061,0.852,1.421,1.454
		C110.104,31.288,110.285,32.045,110.285,32.955z"/>
	<path fill="#ECEAF8" d="M124.27,36.126c0,1.146-0.14,2.155-0.418,3.028c-0.279,0.874-0.654,1.619-1.124,2.235
		c-0.47,0.617-1.01,1.123-1.619,1.52c-0.609,0.396-1.252,0.69-1.927,0.881c-0.426,0.118-0.911,0.195-1.454,0.231
		c-0.543,0.037-1.057,0.056-1.542,0.056h-3.92V28.241h4.493c0.602,0,1.2,0.063,1.795,0.188s1.112,0.275,1.553,0.451
		c1.218,0.484,2.217,1.314,2.995,2.489C123.881,32.544,124.27,34.13,124.27,36.126z M121.891,36.126
		c-0.015-0.925-0.121-1.721-0.319-2.39c-0.198-0.668-0.459-1.222-0.782-1.663c-0.323-0.44-0.69-0.781-1.101-1.023
		c-0.412-0.242-0.837-0.407-1.277-0.496c-0.323-0.044-0.709-0.088-1.156-0.132c-0.448-0.044-0.863-0.066-1.245-0.066h-1.321v11.607
		h1.52c0.353,0,0.752-0.015,1.2-0.045c0.448-0.028,0.818-0.088,1.112-0.176c0.382-0.103,0.771-0.282,1.167-0.539
		s0.763-0.613,1.101-1.068c0.323-0.44,0.587-0.991,0.793-1.652C121.788,37.822,121.891,37.037,121.891,36.126z"/>
	<path fill="#ECEAF8" d="M135.767,30.378h-6.651v4.383h6.387v2.114h-6.387v7.224h-2.423V28.263h9.074V30.378z"/>
	<path fill="#ECEAF8" d="M146.47,40.31h-8.788V28.99h2.334v9.096h6.453V40.31z M154.399,46.697h-2.335V35.135h-2.533v10.197h-2.334
		V27.096h2.334v5.792h2.533v-6.232h2.335V46.697z"/>
	<path fill="#ECEAF8" d="M166.49,41.147h-9.757v-7.113h5.902v-2.533h-6.013v-2.202h8.458v6.959h-5.947v2.688h7.356V41.147z
		 M172.613,46.697h-2.356v-8.061h-4.097v-2.181h4.097v-2.268h-4.097v-2.181h4.097v-5.352h2.356V46.697z"/>
	<path fill="#ECEAF8" d="M184.549,37.557h-8.986v-9.603h2.357v3.105h4.272v-3.105h2.356V37.557z M182.193,35.355v-2.093h-4.272
		v2.093H182.193z M190.628,47.336h-11.012V39.87h10.77v2.202h-8.369v3.04h8.612V47.336z M194.042,33.792h-3.458v5.241h-2.378V26.656
		h2.378v4.911h3.458V33.792z"/>
	<path fill="#ECEAF8" d="M205.406,29.43c-0.073,1.674-0.407,3.179-1.002,4.515c-0.595,1.337-1.325,2.504-2.191,3.502
		c-0.866,0.999-1.806,1.839-2.819,2.522c-1.013,0.683-1.968,1.207-2.863,1.574l-1.586-1.674c2.012-0.837,3.704-1.979,5.077-3.425
		c1.373-1.446,2.257-3.043,2.654-4.79h-6.409V29.43H205.406z M211.177,46.697h-2.356V26.656h2.356V46.697z"/>
</g>
<g>
	<g>
		<path fill="#ECEAF8" d="M53.588,53.25H31.842c-0.288,0-0.562-0.124-0.752-0.341c-0.19-0.217-0.277-0.505-0.24-0.79l1.574-11.894
			L30.85,27.98c-0.037-0.285,0.051-0.572,0.241-0.788c0.19-0.216,0.463-0.34,0.751-0.34h21.746c0.287,0,0.561,0.124,0.751,0.34
			c0.19,0.216,0.278,0.503,0.241,0.788L53.204,38.68c-0.071,0.547-0.573,0.923-1.119,0.864c-0.548-0.071-0.935-0.572-0.865-1.12
			l1.231-9.571H32.979L34.425,40.1c0.011,0.086,0.011,0.173,0,0.259L32.983,51.25H52.45c-0.029-0.518,0.345-0.978,0.867-1.047
			c0.547-0.072,1.05,0.312,1.123,0.859l0.14,1.056c0.038,0.286-0.049,0.574-0.239,0.791S53.876,53.25,53.588,53.25z"/>
		<path fill="#ECEAF8" d="M50.087,30.973c-0.552,0-1-0.447-1-1c0-4.81-2.859-8.723-6.373-8.723c-3.514,0-6.373,3.913-6.373,8.723
			c0,0.553-0.448,1-1,1s-1-0.447-1-1c0-5.912,3.756-10.723,8.373-10.723c4.617,0,8.373,4.811,8.373,10.723
			C51.087,30.525,50.64,30.973,50.087,30.973z"/>
	</g>
	<g>
		<path fill="#ECEAF8" d="M53.278,50.886c-3.329,0-6.038-2.709-6.038-6.039c0-3.329,2.709-6.038,6.038-6.038
			s6.038,2.709,6.038,6.038C59.316,48.177,56.607,50.886,53.278,50.886z M53.278,40.809c-2.227,0-4.038,1.812-4.038,4.038
			c0,2.228,1.812,4.039,4.038,4.039s4.038-1.812,4.038-4.039C57.316,42.62,55.504,40.809,53.278,40.809z"/>
		<g>
			<path fill="#ECEAF8" d="M53.278,47.88c-0.552,0-1-0.447-1-1v-4.066c0-0.553,0.448-1,1-1s1,0.447,1,1v4.066
				C54.278,47.433,53.83,47.88,53.278,47.88z"/>
			<path fill="#ECEAF8" d="M55.311,45.847h-4.067c-0.552,0-1-0.447-1-1s0.448-1,1-1h4.067c0.552,0,1,0.447,1,1
				S55.863,45.847,55.311,45.847z"/>
		</g>
	</g>
</g>
</svg>
