<?xml version="1.0" encoding="utf-8"?>
<!-- Generator: Adobe Illustrator 19.1.0, SVG Export Plug-In . SVG Version: 6.00 Build 0)  -->
<svg version="1.1" id="아이콘" xmlns="http://www.w3.org/2000/svg" xmlns:xlink="http://www.w3.org/1999/xlink" x="0px" y="0px"
	 viewBox="0 0 342.058 72.5" enable-background="new 0 0 342.058 72.5" xml:space="preserve">
<g enable-background="new    ">
	<path fill="#ECEAF8" d="M116.517,41.772H97.73v-2.203h18.787V41.772z M113.28,36.64h-12.51v-2.225h2.423
		c0-0.353-0.004-0.72-0.011-1.102c-0.008-0.381-0.019-0.727-0.033-1.035c-0.029-0.646-0.14-1.156-0.33-1.53
		c-0.191-0.374-0.323-0.613-0.396-0.716l2.092-0.859c0.044,0.074,0.117,0.181,0.22,0.319c0.103,0.14,0.206,0.327,0.308,0.563
		c0.103,0.234,0.195,0.514,0.275,0.837c0.081,0.322,0.128,0.704,0.143,1.145c0.029,0.382,0.048,0.782,0.055,1.2
		c0.007,0.419,0.011,0.812,0.011,1.179h3.061v-5.528h-7.62v-2.202h12.135v2.202h-2.181v5.528h2.357V36.64z"/>
	<path fill="#ECEAF8" d="M129.974,36.573h-11.342v-6.585h6.167v-2.07h-6.277v-2.202h8.678v6.497h-6.211v2.136h8.986V36.573z
		 M134.246,44.788h-10.968v-6.717h2.356v4.471h8.611V44.788z M133.982,38.688h-2.334V24.196h2.334V38.688z"/>
	<path fill="#ECEAF8" d="M155.191,41.772h-19.051v-2.225h19.051V41.772z M150.852,37.19h-10.814V26.464h10.66v2.203h-8.325v1.96
		h8.171v2.225h-8.171v2.092h8.479V37.19z"/>
</g>
<g>
	<path fill="#ECEAF8" d="M54.347,53.198H35.811c-0.552,0-1-0.447-1-1v-32c0-0.553,0.448-1,1-1h1.628
		c0.371,0,0.712,0.206,0.885,0.534c0.1,0.19,0.321,0.394,0.64,0.394c0.269,0,0.509-0.148,0.642-0.397
		c0.174-0.326,0.513-0.53,0.883-0.53h3.083c0.369,0,0.709,0.204,0.883,0.529c0.103,0.192,0.325,0.398,0.642,0.398
		c0.269,0,0.509-0.148,0.642-0.397c0.174-0.326,0.513-0.53,0.883-0.53h3.052c0.371,0,0.712,0.206,0.885,0.534
		c0.1,0.19,0.321,0.394,0.64,0.394c0.269,0,0.509-0.148,0.642-0.397c0.174-0.326,0.513-0.53,0.883-0.53h1.625c0.552,0,1,0.447,1,1
		v32C55.347,52.751,54.899,53.198,54.347,53.198z M36.811,51.198h16.535v-30h-0.108c-0.512,0.583-1.251,0.928-2.041,0.928
		c-0.793,0-1.531-0.345-2.042-0.928h-2.018c-0.512,0.583-1.251,0.928-2.041,0.928c-0.79,0-1.528-0.345-2.041-0.928h-2.051
		c-0.512,0.583-1.251,0.928-2.041,0.928c-0.793,0-1.531-0.345-2.042-0.928h-0.11V51.198z"/>
	<g>
		<rect x="39.585" y="43.272" fill="#ECEAF8" width="10.991" height="1.125"/>
		<rect x="39.585" y="40.171" fill="#ECEAF8" width="10.991" height="1.125"/>
		<rect x="39.585" y="46.395" fill="#ECEAF8" width="10.991" height="1.123"/>
	</g>
	<path fill="#ECEAF8" d="M45.08,36.307c-3.337,0-6.051-2.716-6.051-6.054c0-3.337,2.715-6.052,6.051-6.052s6.051,2.715,6.051,6.052
		C51.132,33.591,48.417,36.307,45.08,36.307z M45.08,25.702c-2.51,0-4.551,2.042-4.551,4.552c0,2.511,2.042,4.554,4.551,4.554
		s4.551-2.043,4.551-4.554C49.632,27.744,47.59,25.702,45.08,25.702z"/>
</g>
</svg>
