<?xml version="1.0" encoding="utf-8"?>
<!-- Generator: Adobe Illustrator 19.1.0, SVG Export Plug-In . SVG Version: 6.00 Build 0)  -->
<svg version="1.1" id="아이콘" xmlns="http://www.w3.org/2000/svg" xmlns:xlink="http://www.w3.org/1999/xlink" x="0px" y="0px"
	 viewBox="-134 360.5 342.1 72.5" style="enable-background:new -134 360.5 342.1 72.5;" xml:space="preserve">
<style type="text/css">
	.st0{fill:#ECEAF8;}
	.st1{fill:#ACABA7;}
</style>
<g>
	<path class="st0" d="M-89,406.3c-3.2,0-6.3-1.2-8.8-3.6c-2.4-2.3-3.7-5.5-3.9-8.9c0-3.4,1.2-6.6,3.6-9c4.9-5,12.9-5.2,17.9-0.3
		c5,4.9,5.2,12.9,0.3,17.9l0,0C-82.4,405-85.8,406.3-89,406.3z M-89,384.1c-2.4,0-4.9,0.9-6.8,2.8c-1.8,1.8-2.7,4.3-2.7,6.7
		c0,2.6,1,4.9,2.8,6.6c3.7,3.6,9.7,3.5,13.4-0.3l0,0c3.6-3.7,3.5-9.7-0.3-13.4C-84.3,385-86.7,384.1-89,384.1z"/>
	<path class="st0" d="M-73,410.7c-0.4,0-0.8-0.1-1.2-0.5l-8.1-7.9c-0.6-0.6-0.6-1.7,0-2.3c0.6-0.6,1.7-0.6,2.3,0l8.1,7.9
		c0.6,0.6,0.6,1.7,0,2.3C-72.1,410.6-72.6,410.7-73,410.7z"/>
</g>
<g>
	<path class="st1" d="M-27.7,387c-0.2,2.4-1.1,4.6-2.6,6.4s-3.4,3.2-5.8,4.1l-1.6-1.7c1.9-0.7,3.6-1.8,4.7-3
		c1.1-1.2,1.9-2.4,2.3-3.6h-5.7V387L-27.7,387L-27.7,387z M-21.9,406.1h-10.5v-7.5h10.5V406.1z M-24.3,403.9v-3.2H-30v3.2H-24.3z
		 M-21.5,397.8h-2.3v-4.4h-4.4v-2.2h4.4v-5.6h2.3V397.8z"/>
	<path class="st1" d="M-8.4,395.2l-1.6,1.6l-3.6-3.6c-0.5,0.9-1.1,1.6-1.7,2.2s-1.5,1.2-2.3,1.6l-1.6-1.7c0.6-0.2,1.1-0.6,1.7-1
		c0.6-0.5,1.1-1,1.6-1.6s0.9-1.3,1.1-2.1c0.2-0.7,0.4-1.6,0.4-2.6v-1.6h2.4v1.6c0,0.5,0,1-0.1,1.3s-0.2,1-0.4,1.3L-8.4,395.2z
		 M-1.8,406.5h-2.3V401h-8.4v-2.2h10.7C-1.8,398.7-1.8,406.5-1.8,406.5z M-1,398.1h-2.3v-5.9h-2.2v5.3h-2.3v-11.7h2.3v4h2.2v-4.5H-1
		C-1,385.2-1,398.1-1,398.1z"/>
</g>
</svg>
