<?xml version="1.0" encoding="utf-8"?>
<!-- Generator: Adobe Illustrator 19.1.0, SVG Export Plug-In . SVG Version: 6.00 Build 0)  -->
<svg version="1.1" id="아이콘" xmlns="http://www.w3.org/2000/svg" xmlns:xlink="http://www.w3.org/1999/xlink" x="0px" y="0px"
	 viewBox="0 0 342.058 72.5" enable-background="new 0 0 342.058 72.5" xml:space="preserve">
<g enable-background="new    ">
	<path fill="#ECEAF8" d="M112.597,34.564l-1.85,1.542l-2.709-3.414c-0.412,0.867-0.903,1.59-1.476,2.17
		c-0.573,0.58-1.138,1.104-1.696,1.574l-1.696-1.762c0.044-0.029,0.092-0.063,0.144-0.099c0.051-0.037,0.099-0.069,0.143-0.1
		c0.044-0.029,0.091-0.063,0.143-0.099c0.051-0.037,0.099-0.077,0.143-0.121l-1.211-1.586c-0.426,0.764-0.917,1.439-1.476,2.026
		s-1.138,1.101-1.74,1.541l-1.762-1.762c0.837-0.499,1.505-1.064,2.004-1.695c0.499-0.632,0.874-1.256,1.124-1.872
		c0.264-0.632,0.437-1.226,0.518-1.784c0.08-0.558,0.121-1.021,0.121-1.388v-1.74h2.422v1.542c0,0.455-0.022,0.889-0.066,1.3
		s-0.103,0.8-0.176,1.167l1.894,2.444c0.543-0.837,0.892-1.677,1.046-2.521c0.154-0.844,0.231-1.574,0.231-2.191v-1.74h2.401v1.542
		c0,0.44-0.019,0.859-0.055,1.256c-0.037,0.396-0.077,0.771-0.121,1.123L112.597,34.564z M115.482,45.4h-10.638v-7.598h10.638V45.4z
		 M113.103,43.198v-3.172h-5.88v3.172H113.103z M115.834,37.031h-2.356v-5.858h-3.392V28.97h3.392v-4.206h2.356V37.031z"/>
	<path fill="#ECEAF8" d="M127.022,38.418h-8.788v-11.32h2.334v9.096h6.453V38.418z M130.722,43.44h-2.334V33.265h-4.559v-2.247
		h4.559v-5.813h2.334V43.44z M135.105,44.805h-2.334V24.764h2.334V44.805z"/>
	<path fill="#ECEAF8" d="M147.219,30.402c0,0.676-0.136,1.3-0.408,1.872c-0.272,0.572-0.635,1.064-1.09,1.476
		c-0.47,0.426-1.006,0.757-1.607,0.991c-0.603,0.235-1.241,0.353-1.916,0.353c-0.661,0-1.289-0.121-1.883-0.363
		s-1.112-0.569-1.553-0.98c-0.44-0.426-0.79-0.925-1.046-1.498c-0.257-0.572-0.386-1.188-0.386-1.85s0.125-1.277,0.375-1.85
		c0.25-0.573,0.595-1.064,1.035-1.476c0.426-0.426,0.936-0.757,1.531-0.991c0.595-0.235,1.237-0.353,1.927-0.353
		c0.705,0,1.361,0.113,1.971,0.341c0.609,0.229,1.141,0.548,1.597,0.958c0.44,0.412,0.792,0.903,1.057,1.476
		C147.086,29.08,147.219,29.711,147.219,30.402z M144.84,30.402c0-0.705-0.261-1.296-0.782-1.772
		c-0.521-0.478-1.142-0.716-1.861-0.716c-0.705,0-1.303,0.234-1.795,0.704c-0.492,0.471-0.738,1.058-0.738,1.762
		c0,0.749,0.246,1.354,0.738,1.817c0.492,0.463,1.09,0.693,1.795,0.693c0.705,0,1.321-0.23,1.85-0.693
		C144.576,31.734,144.84,31.136,144.84,30.402z M153.253,45.554h-10.813v-5.771h7.862v-1.145h-7.973v-2.203h10.396v5.528h-7.818
		v1.321h8.347V45.554z M153.341,35.841h-2.334V24.764h2.334V35.841z"/>
</g>
<g>
	<path fill="#ECEAF8" d="M45.079,53.198c-9.374,0-17-7.626-17-17s7.626-17.001,17-17.001c9.374,0,17,7.627,17,17.001
		S54.453,53.198,45.079,53.198z M45.079,21.197c-8.271,0-15,6.729-15,15.001s6.729,15,15,15c8.271,0,15-6.729,15-15
		S53.35,21.197,45.079,21.197z"/>
	<g>
		<g>
			<circle fill="#ECEAF8" cx="39.569" cy="32.063" r="1.2"/>
			<path fill="#ECEAF8" d="M39.568,33.765c-0.937,0-1.699-0.763-1.699-1.701c0-0.937,0.762-1.7,1.699-1.7
				c0.938,0,1.701,0.763,1.701,1.7C41.269,33.002,40.506,33.765,39.568,33.765z M39.568,31.363c-0.385,0-0.699,0.314-0.699,0.7
				c0,0.387,0.313,0.701,0.699,0.701c0.387,0,0.701-0.314,0.701-0.701C40.269,31.678,39.954,31.363,39.568,31.363z"/>
		</g>
		<g>
			<circle fill="#ECEAF8" cx="50.902" cy="32.063" r="1.2"/>
			<path fill="#ECEAF8" d="M50.901,33.765c-0.937,0-1.699-0.763-1.699-1.701c0-0.937,0.762-1.7,1.699-1.7
				c0.938,0,1.701,0.763,1.701,1.7C52.602,33.002,51.839,33.765,50.901,33.765z M50.901,31.363c-0.385,0-0.699,0.314-0.699,0.7
				c0,0.387,0.314,0.701,0.699,0.701c0.387,0,0.701-0.314,0.701-0.701C51.602,31.678,51.288,31.363,50.901,31.363z"/>
		</g>
	</g>
	<path fill="#ECEAF8" d="M45.037,46.797c-4.041,0-7.845-1.707-10.175-4.567l1.55-1.264c1.955,2.399,5.179,3.831,8.625,3.831
		c3.558,0,6.81-1.428,8.699-3.819l1.569,1.24C53.04,45.085,49.202,46.797,45.037,46.797z"/>
</g>
</svg>
