<?xml version="1.0" encoding="utf-8"?>
<!-- Generator: Adobe Illustrator 19.1.0, SVG Export Plug-In . SVG Version: 6.00 Build 0)  -->
<svg version="1.1" id="아이콘" xmlns="http://www.w3.org/2000/svg" xmlns:xlink="http://www.w3.org/1999/xlink" x="0px" y="0px"
	 viewBox="0 0 342.058 72.5" enable-background="new 0 0 342.058 72.5" xml:space="preserve">
<g>
	<path fill="#ECEAF8" d="M55.247,29.389c-0.806,0.474-1.7,0.816-2.652,0.998c-0.761-0.796-1.846-1.296-3.047-1.296
		c-2.304,0-4.172,1.839-4.172,4.107c0,0.321,0.038,0.635,0.107,0.935c-3.469-0.17-6.545-1.804-8.603-4.292
		c-0.358,0.608-0.565,1.312-0.565,2.067c0,1.423,0.739,2.683,1.857,3.42c-0.682-0.021-1.328-0.207-1.89-0.515v0.053
		c0,1.99,1.439,3.649,3.349,4.029c-0.351,0.096-0.719,0.143-1.101,0.143c-0.268,0-0.528-0.024-0.785-0.072
		c0.533,1.63,2.074,2.82,3.9,2.851c-1.429,1.102-3.23,1.759-5.185,1.759c-0.338,0-0.669-0.019-0.996-0.057
		c1.848,1.167,4.043,1.845,6.4,1.845c7.678,0,11.875-6.258,11.875-11.69c0-0.179-0.002-0.356-0.011-0.53
		c0.816-0.579,1.523-1.304,2.081-2.128c-0.747,0.328-1.55,0.546-2.397,0.647C54.274,31.155,54.934,30.35,55.247,29.389"/>
</g>
<g enable-background="new    ">
	<path fill="#ECEAF8" d="M108.917,31.677h-5.11v13.985h-2.125V31.677h-5.121v-1.795h12.355V31.677z"/>
	<path fill="#ECEAF8" d="M124.246,34.507l-3.612,11.155h-1.553c-0.191,0-0.323-0.125-0.396-0.374l-2.467-7.565
		c-0.059-0.169-0.106-0.34-0.143-0.513c-0.037-0.172-0.074-0.343-0.11-0.512c-0.037,0.169-0.073,0.34-0.11,0.512
		c-0.037,0.173-0.084,0.348-0.143,0.523l-2.511,7.555c-0.066,0.249-0.213,0.374-0.44,0.374h-1.476l-3.612-11.155h1.542
		c0.154,0,0.284,0.04,0.391,0.121s0.178,0.177,0.215,0.286l2.136,7.18c0.125,0.529,0.224,1.028,0.297,1.498
		c0.066-0.242,0.134-0.488,0.204-0.737c0.07-0.25,0.145-0.503,0.226-0.761l2.356-7.224c0.037-0.11,0.101-0.201,0.193-0.275
		c0.091-0.073,0.204-0.109,0.335-0.109h0.859c0.146,0,0.268,0.036,0.363,0.109c0.095,0.074,0.161,0.165,0.198,0.275l2.301,7.224
		c0.081,0.258,0.154,0.511,0.22,0.761c0.066,0.249,0.128,0.495,0.188,0.737c0.037-0.242,0.083-0.486,0.138-0.732
		c0.055-0.246,0.115-0.501,0.182-0.766l2.18-7.18c0.037-0.117,0.106-0.215,0.209-0.292c0.103-0.076,0.224-0.115,0.363-0.115H124.246
		z"/>
	<path fill="#ECEAF8" d="M128.651,31.005c0,0.191-0.039,0.369-0.116,0.534s-0.18,0.313-0.308,0.44
		c-0.129,0.129-0.279,0.229-0.452,0.303c-0.173,0.073-0.354,0.11-0.545,0.11c-0.191,0-0.369-0.037-0.534-0.11
		c-0.166-0.073-0.311-0.174-0.435-0.303c-0.125-0.128-0.224-0.275-0.297-0.44s-0.11-0.343-0.11-0.534c0-0.19,0.037-0.372,0.11-0.545
		s0.172-0.323,0.297-0.451c0.125-0.129,0.27-0.229,0.435-0.303c0.165-0.073,0.343-0.11,0.534-0.11c0.19,0,0.372,0.037,0.545,0.11
		c0.172,0.073,0.323,0.174,0.452,0.303c0.128,0.128,0.231,0.278,0.308,0.451S128.651,30.815,128.651,31.005z M128.233,34.507v11.155
		h-1.96V34.507H128.233z"/>
	<path fill="#ECEAF8" d="M134.873,45.838c-0.881,0-1.558-0.245-2.032-0.737s-0.71-1.2-0.71-2.125v-6.828h-1.343
		c-0.118,0-0.217-0.034-0.297-0.104c-0.081-0.069-0.121-0.178-0.121-0.325v-0.781l1.828-0.231l0.451-3.446
		c0.022-0.11,0.072-0.2,0.149-0.271c0.077-0.069,0.178-0.104,0.303-0.104h0.991v3.844h5.252l0.452-3.469
		c0.022-0.11,0.071-0.2,0.148-0.271c0.077-0.069,0.178-0.104,0.303-0.104h0.991v3.844h3.227v1.42h-3.227v6.695
		c0,0.47,0.116,0.819,0.347,1.047c0.231,0.228,0.523,0.341,0.875,0.341c0.205,0,0.383-0.027,0.534-0.082
		c0.15-0.056,0.281-0.116,0.391-0.183c0.11-0.065,0.204-0.126,0.281-0.182c0.077-0.055,0.145-0.082,0.204-0.082
		c0.11,0,0.202,0.063,0.275,0.188l0.583,0.936c-0.345,0.315-0.756,0.563-1.233,0.743c-0.478,0.18-0.969,0.27-1.476,0.27
		c-0.874,0-1.549-0.245-2.026-0.737c-0.478-0.492-0.716-1.2-0.716-2.125v-6.828h-5.187v6.695c0,0.47,0.113,0.819,0.341,1.047
		c0.228,0.228,0.521,0.341,0.881,0.341c0.206,0,0.383-0.027,0.534-0.082c0.15-0.056,0.281-0.116,0.391-0.183
		c0.11-0.065,0.204-0.126,0.281-0.182c0.077-0.055,0.145-0.082,0.204-0.082c0.103,0,0.194,0.063,0.275,0.188l0.573,0.936
		c-0.338,0.315-0.745,0.563-1.222,0.743C135.871,45.748,135.379,45.838,134.873,45.838z"/>
	<path fill="#ECEAF8" d="M155.487,44.099c-0.242,0.294-0.532,0.549-0.87,0.765c-0.338,0.217-0.7,0.396-1.085,0.534
		c-0.385,0.14-0.784,0.244-1.195,0.314c-0.411,0.069-0.819,0.104-1.222,0.104c-0.771,0-1.481-0.131-2.131-0.391
		c-0.65-0.261-1.211-0.643-1.685-1.146c-0.473-0.503-0.842-1.125-1.106-1.867c-0.264-0.741-0.396-1.593-0.396-2.555
		c0-0.777,0.119-1.505,0.358-2.18c0.238-0.676,0.582-1.261,1.03-1.757c0.447-0.495,0.995-0.885,1.641-1.167
		c0.646-0.283,1.373-0.424,2.18-0.424c0.668,0,1.287,0.111,1.855,0.336c0.569,0.224,1.061,0.547,1.476,0.969
		c0.415,0.422,0.74,0.943,0.975,1.563s0.353,1.327,0.353,2.12c0,0.309-0.033,0.514-0.099,0.616
		c-0.066,0.104-0.191,0.154-0.375,0.154h-7.455c0.022,0.705,0.119,1.318,0.292,1.839c0.172,0.521,0.413,0.957,0.721,1.306
		s0.675,0.609,1.101,0.781c0.426,0.173,0.903,0.259,1.432,0.259c0.492,0,0.916-0.057,1.272-0.171
		c0.356-0.113,0.663-0.236,0.919-0.368c0.257-0.133,0.472-0.255,0.644-0.369s0.321-0.171,0.446-0.171
		c0.161,0,0.286,0.063,0.375,0.188L155.487,44.099z M153.902,38.868c0-0.456-0.064-0.872-0.193-1.25s-0.316-0.705-0.562-0.98
		c-0.246-0.275-0.545-0.488-0.897-0.639c-0.353-0.15-0.753-0.226-1.201-0.226c-0.939,0-1.683,0.273-2.229,0.82
		c-0.547,0.547-0.887,1.305-1.019,2.274H153.902z"/>
	<path fill="#ECEAF8" d="M159.925,36.742c0.353-0.764,0.786-1.359,1.3-1.789c0.514-0.43,1.141-0.645,1.883-0.645
		c0.235,0,0.46,0.026,0.677,0.077c0.216,0.052,0.409,0.132,0.578,0.242l-0.143,1.465c-0.044,0.184-0.154,0.275-0.331,0.275
		c-0.103,0-0.253-0.022-0.451-0.066s-0.422-0.066-0.672-0.066c-0.353,0-0.667,0.052-0.941,0.154
		c-0.275,0.104-0.521,0.256-0.738,0.457c-0.217,0.202-0.412,0.452-0.584,0.749c-0.172,0.298-0.329,0.637-0.468,1.019v7.048h-1.971
		V34.507h1.123c0.213,0,0.36,0.04,0.44,0.121c0.081,0.081,0.136,0.221,0.166,0.419L159.925,36.742z"/>
</g>
</svg>
